# xmcd
#
# Track frame offsets:
#	150
#	17197
#	31970
#	48020
#	66494
#	82231
#	97746
#	112585
#	126923
#	146419
#	161319
#
# Disc length: 2312 seconds
#
# Revision: 0
# Processed by: cddbd v1.5.2PL0 Copyright (c) Steve Scherf et al.
# Submitted via: audiograbber 1.82.01
#
DISCID=8409060b
DTITLE=Martina McBride - Wild Angels
DYEAR=1995
DGENRE=Country
TTITLE0=Wild Angels  
TTITLE1=Safe In The Arms Of Love  
TTITLE2=Phones Are Ringin' All Over Town  
TTITLE3=A Great Disguise
TTITLE4=Swingin' Doors  
TTITLE5=All The Things We've Never Done  
TTITLE6=Two More Bottles Of Wine  
TTITLE7=Cry On The Shoulder Of The Road  
TTITLE8=You've Been Driving All The Time  
TTITLE9=Born To Give My Love To You  
TTITLE10=Beyond The Blue  
EXTD=
EXTT0=
EXTT1=
EXTT2=
EXTT3=
EXTT4=
EXTT5=
EXTT6=
EXTT7=
EXTT8=
EXTT9=
EXTT10=
PLAYORDER=
